<?xml version="1.0" encoding="UTF-8" standalone="no"?>
<!-- Generator: Adobe Illustrator 16.0.2, SVG Export Plug-In . SVG Version: 6.00 Build 0)  -->

<svg
   xmlns:dc="http://purl.org/dc/elements/1.1/"
   xmlns:cc="http://creativecommons.org/ns#"
   xmlns:rdf="http://www.w3.org/1999/02/22-rdf-syntax-ns#"
   xmlns:svg="http://www.w3.org/2000/svg"
   xmlns="http://www.w3.org/2000/svg"
   xmlns:sodipodi="http://sodipodi.sourceforge.net/DTD/sodipodi-0.dtd"
   xmlns:inkscape="http://www.inkscape.org/namespaces/inkscape"
   version="1.1"
   id="Layer_1"
   x="0px"
   y="0px"
   width="109.22501"
   height="48"
   viewBox="0 0 109.22501 48"
   enable-background="new 0 0 792 612"
   xml:space="preserve"
   inkscape:version="0.91 r13725"
   sodipodi:docname="logo-white.svg"><metadata
     id="metadata47"><rdf:RDF><cc:Work
         rdf:about=""><dc:format>image/svg+xml</dc:format><dc:type
           rdf:resource="http://purl.org/dc/dcmitype/StillImage" /><dc:title></dc:title></cc:Work></rdf:RDF></metadata><defs
     id="defs45" /><sodipodi:namedview
     pagecolor="#ffffff"
     bordercolor="#666666"
     borderopacity="1"
     objecttolerance="10"
     gridtolerance="10"
     guidetolerance="10"
     inkscape:pageopacity="0"
     inkscape:pageshadow="2"
     inkscape:window-width="1920"
     inkscape:window-height="1056"
     id="namedview43"
     showgrid="false"
     fit-margin-top="0"
     fit-margin-left="0"
     fit-margin-right="0"
     fit-margin-bottom="0"
     inkscape:zoom="1.0642314"
     inkscape:cx="379.88513"
     inkscape:cy="20.782283"
     inkscape:window-x="0"
     inkscape:window-y="194"
     inkscape:window-maximized="1"
     inkscape:current-layer="Layer_1" /><g
     id="g3"
     style="fill:#ffffff"
     transform="matrix(0.1986787,0,0,0.1986787,-22.831361,-36.7957)"><path
       d="m 367.11,330.256 c -18.123,13.795 -38.226,22.506 -61.19,23.961 -22.833,1.445 -45.557,0.379 -68.005,-3.928 -17.53,-3.365 -34.101,-9.951 -50.441,-17.027 -23.672,-10.25 -46.388,-22.363 -68.637,-35.378 -0.625,-0.365 -1.209,-0.799 -1.812,-1.199 0.176,-0.187 0.352,-0.371 0.529,-0.557 9.65,3.937 19.233,8.026 29.085,11.47 23.718,8.289 47.962,14.668 72.426,20.277 0.493,0.111 1.009,0.117 2.066,0.232 -1.213,-1.609 -2.137,-2.871 -3.097,-4.105 -22.515,-28.9 -21.739,-70.296 1.835,-98.366 0.719,-0.856 1.318,-1.813 1.973,-2.724 0.135,-0.109 0.271,-0.219 0.407,-0.328 -0.093,-0.021 -0.186,-0.043 -0.279,-0.064 -0.021,0.146 -0.043,0.292 -0.064,0.439 -4.508,0.061 -8.638,1.752 -12.802,3.143 -19.982,6.674 -38.124,16.475 -53.023,31.679 -0.132,0.135 -0.365,0.171 -0.836,0.378 2.289,-8.68 6.112,-16.411 11.119,-23.551 12.916,-18.416 30.515,-30.723 51.348,-38.537 27.265,-10.227 55.405,-12.922 84.268,-9.403 23.413,2.854 45.648,9.848 67.188,19.053 33.361,14.258 67.248,27.196 100.839,40.874 1.515,0.616 3.014,1.267 4.52,1.901 -0.066,0.252 -0.134,0.503 -0.201,0.755 -14.938,-3.487 -29.88,-6.973 -44.818,-10.463 -14.996,-3.504 -29.975,-7.064 -45.162,-9.706 -15.284,-2.659 -30.621,-4.878 -46.774,-6.847 15.288,17.191 22.455,36.804 20.921,59.166 -1.542,22.482 -11.469,40.921 -29.078,55.898 13.088,-1.178 25.179,-4.002 37.099,-7.666 0.196,0.207 0.395,0.414 0.596,0.623 z M 280.432,224.689 c -6.526,0 -13.052,0.034 -19.577,-0.026 -1.451,-0.013 -2.523,0.39 -3.56,1.435 -9.048,9.116 -18.135,18.195 -27.245,27.25 -0.951,0.944 -1.377,1.9 -1.372,3.261 0.045,12.844 0.049,25.688 -0.003,38.532 -0.006,1.468 0.435,2.51 1.466,3.534 9.042,8.974 18.057,17.978 27.031,27.019 1.172,1.182 2.357,1.721 4.056,1.711 12.637,-0.068 25.274,-0.063 37.912,-0.008 1.574,0.008 2.679,-0.441 3.796,-1.57 8.815,-8.91 17.666,-17.783 26.589,-26.584 1.516,-1.494 2.205,-2.997 2.188,-5.148 -0.09,-12.326 -0.075,-24.652 -0.018,-36.978 0.007,-1.69 -0.498,-2.895 -1.699,-4.084 -8.975,-8.895 -17.905,-17.837 -26.799,-26.813 -1.108,-1.119 -2.233,-1.583 -3.811,-1.562 -6.317,0.08 -12.636,0.032 -18.954,0.031 z"
       id="path5"
       style="clip-rule:evenodd;fill:#ffffff;fill-rule:evenodd"
       inkscape:connector-curvature="0" /><path
       d="m 427.679,349.242 c -20.062,0.064 -34.861,-14.549 -34.919,-34.48 -0.058,-20.022 14.833,-34.959 34.875,-34.985 19.255,-0.025 34.759,14.906 34.831,33.54 0.08,21.06 -14.251,35.859 -34.787,35.925 z m 0.004,-59.784 c -13.884,-0.01 -24.177,10.577 -24.185,24.876 -0.01,14.639 10.146,25.418 23.992,25.465 13.89,0.047 24.146,-10.676 24.166,-25.266 0.022,-14.422 -10.156,-25.066 -23.973,-25.075 z"
       id="path7"
       style="clip-rule:evenodd;fill:#ffffff;fill-rule:evenodd"
       inkscape:connector-curvature="0" /><path
       d="m 663.441,293.51 c -2.642,1.908 -5.147,3.719 -7.909,5.713 -5.269,-7.345 -12.519,-10.353 -21.276,-9.644 -6.232,0.504 -11.586,3.066 -15.687,7.878 -8.853,10.386 -7.658,28.023 2.203,36.654 8.007,7.008 25.079,9.676 35.758,-4.926 2.645,1.861 5.295,3.725 7.922,5.574 -7.42,12.191 -23.081,17.461 -38.274,13.139 -14.87,-4.23 -24.582,-17.525 -24.497,-33.533 0.084,-15.877 9.885,-29.002 24.67,-33.04 15.109,-4.125 30.259,0.749 37.09,12.185 z"
       id="path9"
       style="clip-rule:evenodd;fill:#ffffff;fill-rule:evenodd"
       inkscape:connector-curvature="0" /><path
       d="m 534.205,293.57 c -2.657,1.905 -5.162,3.703 -7.63,5.474 -12.888,-11.909 -26.888,-12.674 -36.636,-2.146 -9.208,9.945 -8.666,27.359 1.142,36.636 10.271,9.719 24.595,8.092 36.396,-4.285 2.555,1.809 5.137,3.635 7.692,5.443 -5.784,11.223 -21.731,17.16 -36.465,13.738 -15.494,-3.6 -26.227,-17.416 -26.275,-33.826 -0.047,-16.161 10.211,-29.555 25.705,-33.56 14.515,-3.752 30.24,1.6 36.071,12.526 z"
       id="path11"
       style="clip-rule:evenodd;fill:#ffffff;fill-rule:evenodd"
       inkscape:connector-curvature="0" /><path
       d="m 115.917,295.924 c -0.317,-0.164 -0.634,-0.327 -1.001,-0.517 0.639,-0.728 1.006,-0.294 1.376,0.111 -0.124,0.137 -0.25,0.272 -0.375,0.406 z"
       id="path13"
       style="clip-rule:evenodd;fill:#ffffff;fill-rule:evenodd"
       inkscape:connector-curvature="0" /><path
       d="m 117.024,296.684 c -0.369,-0.255 -0.738,-0.509 -1.107,-0.762 0.125,-0.133 0.25,-0.268 0.375,-0.403 0.42,0.203 0.841,0.405 1.261,0.608 -0.177,0.186 -0.352,0.371 -0.529,0.557 z"
       id="path15"
       style="clip-rule:evenodd;fill:#ffffff;fill-rule:evenodd"
       inkscape:connector-curvature="0" /><path
       d="m 366.51,329.631 c 0.417,-0.344 0.852,-0.564 1.51,-0.127 -0.333,0.273 -0.622,0.514 -0.911,0.752 -0.2,-0.209 -0.399,-0.416 -0.599,-0.625 z"
       id="path17"
       style="clip-rule:evenodd;fill:#ffffff;fill-rule:evenodd"
       inkscape:connector-curvature="0" /><path
       d="m 221.904,222.958 c 0.021,-0.146 0.043,-0.292 0.064,-0.439 0.093,0.021 0.187,0.043 0.279,0.064 -0.136,0.109 -0.271,0.219 -0.407,0.328 0.001,0.001 0.064,0.047 0.064,0.047 z"
       id="path19"
       style="clip-rule:evenodd;fill:#ffffff;fill-rule:evenodd"
       inkscape:connector-curvature="0" /><path
       d="m 569.593,279.99 c -0.078,-0.002 -0.157,-0.003 -0.236,-0.005 -0.078,0.002 -0.156,0.003 -0.235,0.005 -9.875,22.743 -19.749,45.485 -29.742,68.499 3.792,0 7.253,0 11.076,0 0.981,-2.348 2.111,-4.861 3.074,-7.438 0.549,-1.467 1.346,-2.074 2.971,-2.061 4.285,0.035 8.571,0.055 12.856,0.055 4.286,0 8.572,-0.02 12.857,-0.055 1.625,-0.014 2.422,0.594 2.971,2.061 0.963,2.576 2.094,5.09 3.074,7.438 3.823,0 7.283,0 11.076,0 -9.993,-23.014 -19.867,-45.756 -29.742,-68.499 z m -0.237,49.92 c -3.654,0 -7.303,0 -11.02,0 3.652,-9.289 7.243,-18.42 11.02,-28.028 3.777,9.608 7.368,18.739 11.021,28.028 -3.717,0 -7.365,0 -11.021,0 z"
       id="path21"
       style="clip-rule:evenodd;fill:#ffffff;fill-rule:evenodd"
       inkscape:connector-curvature="0" /><g
       id="g23"
       style="fill:#ffffff"><path
         d="m 468.777,390.125 c 0,12.596 0,24.234 0,35.916 1.712,0.23 3.216,0.395 4.97,-0.117 0,-7.375 0,-14.74 0,-22.525 4.147,5.043 7.982,9.707 12.057,14.66 4.125,-4.99 7.964,-9.637 12.226,-14.793 0,8.031 0,15.416 0,22.846 1.772,0.102 3.288,0.406 4.859,-0.227 0,-11.627 0,-23.201 0,-35.785 -6.004,7.107 -11.434,13.539 -16.984,20.111 -5.667,-6.645 -11.162,-13.09 -17.128,-20.086 z"
         id="path25"
         style="clip-rule:evenodd;fill:#ffffff;fill-rule:evenodd"
         inkscape:connector-curvature="0" /><path
         d="m 234.393,408.482 c -4.953,0 -9.553,0 -14.264,0 0,1.588 0,2.988 0,4.701 3.093,0 6.052,0 8.958,0 0.821,7.023 0.89,7.035 -5.765,8.42 -2.274,0.473 -4.558,0.137 -6.767,-0.473 -5.492,-1.51 -9.127,-6.928 -8.877,-13.107 0.266,-6.563 4.166,-11.279 10.081,-12.416 4.234,-0.813 7.913,0.348 11.357,3.023 1.138,-1.156 2.145,-2.18 3.365,-3.418 -0.615,-0.652 -0.933,-1.061 -1.318,-1.387 -4.657,-3.967 -13.536,-4.576 -19.685,-1.367 -6.357,3.32 -10.034,10.166 -9.323,17.555 0.667,6.93 3.911,12.252 10.438,14.986 7.052,2.955 13.964,2.207 20.503,-1.781 0.729,-0.445 1.307,-0.984 1.303,-1.953 -0.015,-4.214 -0.006,-8.429 -0.006,-12.783 z"
         id="path27"
         style="clip-rule:evenodd;fill:#ffffff;fill-rule:evenodd"
         inkscape:connector-curvature="0" /><path
         d="m 288.719,400.773 c 0.023,-3.262 0.004,-9.826 0.004,-9.826 l -5.405,0 c 0,0 -0.012,13.945 0.008,20.846 0.005,1.764 0.017,3.518 -0.547,5.217 -1.096,3.299 -3.774,4.938 -7.796,4.771 -3.958,-0.164 -6.247,-1.855 -7.166,-5.191 -0.672,-2.443 -0.457,-4.934 -0.473,-7.404 -0.039,-6.063 -0.013,-18.195 -0.013,-18.195 l -5.382,0.1 c 0,0 -0.159,15.691 0.046,23.438 0.198,7.523 5.231,12.002 13.221,12.219 7.386,0.199 12.703,-4.174 13.284,-11.41 0.389,-4.83 0.183,-9.709 0.219,-14.565 z"
         id="path29"
         style="clip-rule:evenodd;fill:#ffffff;fill-rule:evenodd"
         inkscape:connector-curvature="0" /><path
         d="m 592.583,421.25 c 0,-10.246 0,-20.211 0,-30.178 -1.806,-0.453 -3.314,-0.348 -5.024,-0.115 0,11.865 0,23.479 0,35.119 7.223,0 14.207,0 21.369,0 0.108,-1.641 0.484,-3.117 -0.384,-4.826 -5.214,0 -10.44,0 -15.961,0 z"
         id="path31"
         style="clip-rule:evenodd;fill:#ffffff;fill-rule:evenodd"
         inkscape:connector-curvature="0" /><path
         d="m 364.21,395.721 c 0,0 6.777,0 10.306,0 0,10.26 0,30.287 0,30.287 l 5.465,-0.055 c 0,0 0,-20.096 0,-30.365 3.574,0 6.846,0 10.24,0 0,-1.684 0,-3.084 0,-4.551 -8.75,0 -26.011,0 -26.011,0 l 0,4.684 z"
         id="path33"
         style="clip-rule:evenodd;fill:#ffffff;fill-rule:evenodd"
         inkscape:connector-curvature="0" /><path
         d="m 329.167,390.564 c -0.04,0.002 -0.081,0.002 -0.122,0.004 -5.08,11.699 -10.16,23.4 -15.301,35.24 1.951,0 3.731,0 5.699,0 0.504,-1.209 1.086,-2.502 1.582,-3.828 0.282,-0.754 0.692,-1.066 1.528,-1.059 2.205,0.018 4.409,0.027 6.614,0.027 2.205,0 4.41,-0.01 6.614,-0.027 0.836,-0.008 1.246,0.305 1.528,1.059 0.496,1.326 1.077,2.619 1.582,3.828 1.967,0 3.748,0 5.698,0 -5.141,-11.84 -10.221,-23.541 -15.301,-35.24 -0.041,-0.002 -0.081,-0.002 -0.121,-0.004 z m 0,25.686 c -1.88,0 -3.757,0 -5.669,0 1.879,-4.779 3.726,-9.477 5.669,-14.42 1.943,4.943 3.791,9.641 5.669,14.42 -1.912,0 -3.79,0 -5.669,0 z"
         id="path35"
         style="clip-rule:evenodd;fill:#ffffff;fill-rule:evenodd"
         inkscape:connector-curvature="0" /><polygon
         points="422.331,409.322 422.102,395.512 438.952,395.512 438.952,390.961 417.194,390.961 417.194,426.072 438.952,426.072 438.952,421.227 422.82,421.227 422.783,414.346 437.586,414.447 437.37,409.322 "
         id="polygon37"
         style="clip-rule:evenodd;fill:#ffffff;fill-rule:evenodd" /><path
         d="m 545.621,390.898 c -0.04,0.002 -0.081,0.002 -0.121,0.002 -5.08,11.701 -10.16,23.402 -15.302,35.242 1.951,0 3.731,0 5.699,0 0.504,-1.209 1.086,-2.502 1.581,-3.828 0.282,-0.754 0.692,-1.066 1.528,-1.059 2.205,0.018 4.409,0.027 6.614,0.027 2.205,0 4.41,-0.01 6.614,-0.027 0.836,-0.008 1.246,0.305 1.528,1.059 0.496,1.326 1.077,2.619 1.582,3.828 1.967,0 3.747,0 5.698,0 -5.141,-11.84 -10.221,-23.541 -15.301,-35.242 -0.039,0 -0.08,0 -0.12,-0.002 z m 0,25.686 c -1.88,0 -3.757,0 -5.67,0 1.88,-4.779 3.727,-9.477 5.67,-14.42 1.943,4.943 3.791,9.641 5.669,14.42 -1.912,0 -3.789,0 -5.669,0 z"
         id="path39"
         style="clip-rule:evenodd;fill:#ffffff;fill-rule:evenodd"
         inkscape:connector-curvature="0" /><path
         d="m 649.374,390.766 c -0.041,0 -0.082,0 -0.121,-0.002 -0.041,0.002 -0.081,0.002 -0.122,0.002 -5.08,11.701 -10.16,23.402 -15.302,35.242 1.951,0 3.731,0 5.699,0 0.504,-1.209 1.086,-2.502 1.581,-3.828 0.283,-0.754 0.692,-1.066 1.528,-1.059 2.205,0.018 4.409,0.027 6.615,0.027 2.205,0 4.409,-0.01 6.614,-0.027 0.836,-0.008 1.245,0.305 1.528,1.059 0.495,1.326 1.076,2.619 1.581,3.828 1.967,0 3.747,0 5.698,0 -5.139,-11.84 -10.219,-23.541 -15.299,-35.242 z m -0.121,25.683 c -1.881,0 -3.758,0 -5.67,0 1.879,-4.779 3.726,-9.477 5.67,-14.42 1.942,4.943 3.79,9.641 5.669,14.42 -1.912,0 -3.79,0 -5.669,0 z"
         id="path41"
         style="clip-rule:evenodd;fill:#ffffff;fill-rule:evenodd"
         inkscape:connector-curvature="0" /></g></g></svg>